<svg clip-rule="evenodd" fill-rule="evenodd" height="1.707in" image-rendering="optimizeQuality" shape-rendering="geometricPrecision" text-rendering="geometricPrecision" viewBox="0 0 1707 1707" width="1.707in" xmlns="http://www.w3.org/2000/svg"><g id="Layer_x0020_1"><path d="m705 815h-440c-38 0-38-58 0-58h440c39 0 39 58 0 58zm972 704h-1648c-16 0-29-13-29-29v-1273c0-16 13-29 29-29h1648c16 0 29 13 29 29v1273c0 16-13 29-29 29zm-1619-58h76v-145c0-16 13-29 29-29h146c16 0 29 13 29 29v145h69v-414c0-16 13-29 29-29h146c16 0 29 13 29 29v414h68v-265c0-16 13-29 29-29h146c16 0 29 13 29 29v265h765v-991h-1590zm0-1049h1590v-166h-1590zm187-54h-86c-38 0-38-58 0-58h86c39 0 39 58 0 58zm202 0h-86c-38 0-38-58 0-58h86c39 0 39 58 0 58zm-255 1103h88v-116h-88zm273 0h88v-385h-88zm272 0h88v-236h-88zm518-279c-176 0-323-143-323-324 0-178 142-322 323-323h1c180 1 324 147 323 323-1 180-146 324-324 324zm-29-588c-239 26-323 336-127 479l127-223zm-77 508c163 71 351-37 370-215h-247zm370-273c-13-123-111-221-235-235v235zm-712 104h-644c-16 0-29-13-29-29v-340c0-16 13-29 29-29h644c16 0 29 13 29 29v340c0 16-13 29-29 29zm-615-58h586v-282h-586zm513-165h-440c-38 0-38-57 0-57h440c39 0 39 57 0 57z"/><path d="m737 1225v236h88v-236z" fill="#1d81ce"/><path d="m553 1461v-385h-88v385z" fill="#7ed63f"/><path d="m280 1461v-116h-88v116z" fill="#ff3e1a"/><path d="m163 1287h146c16 0 29 13 29 29v145h69v-414c0-16 13-29 29-29h146c16 0 29 13 29 29v414h68v-265c0-16 13-29 29-29h146c16 0 29 13 29 29v265h765v-991h-1590v991h76v-145c0-16 13-29 29-29zm644-354h-644c-16 0-29-13-29-29v-340c0-16 13-29 29-29h644c16 0 29 13 29 29v340c0 16-13 29-29 29zm448 249c-176 0-323-143-323-324 0-178 142-322 323-323h1c180 1 324 147 323 323-1 180-146 324-324 324z" fill="#ffe4af"/><path d="m192 875h586v-282h-586zm513-60h-440c-38 0-38-58 0-58h440c39 0 39 58 0 58zm0-105h-440c-38 0-38-57 0-57h440c39 0 39 57 0 57z" fill="#ccc"/><path d="m58 412h1590v-166h-1590zm389-112c39 0 39 58 0 58h-86c-38 0-38-58 0-58zm-202 0c39 0 39 58 0 58h-86c-38 0-38-58 0-58z" fill="#ffa721"/><path d="m1284 594v235h235c-13-123-111-221-235-235z" fill="#ff3e1a"/><path d="m1226 850v-256c-239 26-323 336-127 479z" fill="#7ed63f"/><path d="m1272 887-123 215c163 71 351-37 370-215z" fill="#1d81ce"/></g></svg>